<svg width="1188" height="641" viewBox="0 0 1188 641" fill="none" xmlns="http://www.w3.org/2000/svg">
<g clip-path="url(#clip0_28_27)">
<path d="M1186.41 325.928C1186.56 368.459 1180.68 408.384 1168.91 445.788C1157.14 483.192 1139.34 516.296 1115.64 545.184C1091.95 574.071 1063.68 596.621 1030.85 612.832C998.151 629.042 961.548 637.132 921.307 637.271C891.495 637.374 866.476 632.038 846.385 621.263C826.161 610.488 810.872 596.562 800.386 579.568C789.899 562.575 784.623 544.717 784.558 525.739C784.492 506.761 789.244 488.868 798.944 471.805C808.645 454.742 822.367 441.054 840.112 430.572C857.99 420.089 879.63 414.846 904.897 414.759C925.753 414.687 944.48 417.672 960.811 423.801C977.276 429.929 992.949 439.025 1007.83 451.258C1024.33 466.367 1037.73 476.657 1048.18 482.297C1058.63 487.938 1069.87 490.695 1081.76 490.654C1093.66 490.613 1105.67 483.963 1117.52 470.705C1129.38 457.447 1139.47 438.773 1147.54 414.599C1155.62 390.509 1159.67 363.299 1159.56 333.053C1159.42 290.522 1150.73 253.274 1133.51 221.138C1116.28 189.087 1091.2 163.926 1058.38 145.57C1025.56 127.298 983.687 118.208 933.019 118.383C894.249 118.517 859.248 126.178 828.018 141.451C796.787 156.725 767.06 181.821 738.839 216.909C710.618 251.997 681.772 299.796 652.168 360.391C616.571 427.615 581.06 480.86 545.367 520.21C509.674 559.56 471.802 587.565 431.619 604.225C391.436 620.885 347.481 629.34 299.754 629.504C208.845 629.818 136.421 601.516 82.4809 544.514C28.5406 487.512 1.4027 410.422 1.06664 313.076C0.884138 260.209 11.9458 211.454 34.1186 166.983C56.2914 122.511 87.1831 86.4812 126.527 58.9796C166.004 31.4775 212.481 17.5919 266.223 17.4063C294.566 17.3085 318.113 22.3954 336.731 32.7521C355.484 43.1084 369.3 56.5318 378.181 73.0222C387.195 89.5123 391.666 106.781 391.728 124.742C391.777 138.89 389.285 152.878 383.985 166.537C378.818 180.28 371.374 192.591 361.786 203.469C352.198 214.346 339.528 223.201 323.909 229.779C308.29 236.441 289.986 239.809 269.131 239.881C228.89 240.02 193.815 225.992 163.904 197.713C149.013 182.683 136.276 172.306 125.829 166.666C115.382 161.026 105.613 158.263 96.7894 158.294C89.3028 158.32 81.161 162.16 72.2298 169.732C63.2987 177.303 55.5816 188.005 48.8106 201.669C42.1735 215.417 37.0126 230.769 33.3281 247.812C29.6436 264.854 27.8354 283.245 27.9039 303.07C28.0507 345.601 35.6677 383.362 50.6212 416.352C65.7087 449.427 87.7232 475.277 116.799 494.07C145.875 512.863 181.469 522.229 223.179 522.085C260.479 521.956 295.875 512.853 329.369 494.776C362.863 476.699 393.386 450.16 420.806 415.074C448.225 380.074 475.349 336.94 502.044 285.844C540.569 214.882 576.873 158.755 611.089 117.545C645.305 76.3363 680.498 46.7309 717.066 28.5585C753.501 10.4713 795.582 1.34534 843.309 1.18058C898.522 0.989974 947.749 9.29238 990.989 26.1726C1034.36 43.0524 1070.14 66.0584 1098.58 95.2746C1127.02 124.491 1148.8 158.644 1163.78 197.819C1178.75 236.995 1186.38 279.754 1186.54 326.013L1186.41 325.928Z" fill="#F490B9" fill-opacity="0.21"/>
</g>
<defs>
<clipPath id="clip0_28_27">
<rect width="636.356" height="1185.29" fill="white" transform="translate(2.19678 640.444) rotate(-90.1978)"/>
</clipPath>
</defs>
</svg>
