<svg width="334" height="368" viewBox="0 0 334 368" fill="none" xmlns="http://www.w3.org/2000/svg">
<path d="M166.336 368C152.106 368 140.826 363.789 132.42 355.366C124.015 346.944 119.812 335.566 119.812 321.381C119.812 311.629 121.803 302.689 125.785 294.71C129.766 286.731 134.411 279.195 139.793 272.029C145.102 264.936 149.747 257.179 153.802 248.683C157.784 240.26 159.774 231.173 159.774 221.347C159.774 214.254 158.447 209.156 155.793 205.98C153.139 202.877 147.314 203.985 138.466 209.304C127.849 214.624 119.812 222.455 114.504 232.65C109.195 242.846 104.034 253.115 99.1678 263.311C94.3016 273.507 88.0344 282.446 80.5139 289.982C72.9934 297.518 61.1965 301.286 45.2706 301.286C31.9991 301.286 21.087 296.41 12.6817 286.657C4.27638 276.905 0.0737305 264.863 0.0737305 250.677C0.0737305 235.606 5.38234 223.342 16.0733 214.033C26.6905 204.724 40.4781 200.069 57.2887 200.069C66.1364 200.069 74.7629 200.956 83.242 202.729C91.6472 204.502 99.9051 205.167 107.868 204.724C115.831 204.28 123.351 201.399 130.503 196.08C139.351 191.647 143.332 187.435 142.448 183.446C141.563 179.456 137.581 175.688 130.503 172.142C123.425 166.823 115.831 163.941 107.868 163.498C99.9051 163.055 91.6472 163.72 83.242 165.493C74.8366 167.266 66.1364 168.153 57.2887 168.153C40.4044 168.153 26.6905 163.498 16.0733 154.189C5.45607 144.88 0.0737305 132.616 0.0737305 117.544C0.0737305 103.359 4.27638 91.5383 12.6817 82.2293C21.087 72.9203 31.9991 68.2658 45.2706 68.2658C61.2702 68.2658 72.9934 71.8121 80.5139 78.9047C88.0344 85.9972 94.2278 94.7152 99.1678 104.911C104.034 115.106 109.121 125.376 114.504 135.571C119.812 145.767 127.775 153.598 138.466 158.918C147.314 164.237 153.139 165.345 155.793 162.242C158.447 159.139 159.774 154.041 159.774 146.875C159.774 138.009 157.784 129.365 153.802 120.869C149.821 112.447 145.176 104.172 139.793 96.1928C134.485 88.2137 129.84 80.1607 125.785 72.1815C121.803 64.2024 119.812 55.7061 119.812 46.8404C119.812 32.6553 124.015 21.2777 132.42 12.8553C140.826 4.43288 152.18 0.22168 166.336 0.22168C181.377 0.22168 192.953 4.43288 200.916 12.8553C208.879 21.2777 212.861 32.6553 212.861 46.8404C212.861 56.6666 210.87 65.5323 206.888 73.5114C202.907 81.4905 198.262 89.3219 192.879 96.8577C187.571 104.394 182.926 112.225 178.944 120.204C174.963 128.183 172.972 137.123 172.972 146.875C172.972 153.967 174.299 159.139 176.954 162.242C179.608 165.345 185.359 164.237 194.28 158.918C204.898 153.598 212.934 145.841 218.243 135.571C223.551 125.376 228.639 115.106 233.579 104.911C238.445 94.7152 244.86 86.0711 252.896 78.9047C260.859 71.8121 272.361 68.2658 287.476 68.2658C300.747 68.2658 311.881 72.9203 320.729 82.2293C329.576 91.5383 334 103.359 334 117.544C334 132.69 328.691 144.88 318 154.189C307.383 163.498 293.596 168.153 276.785 168.153C266.979 168.153 257.91 167.266 249.505 165.493C241.026 163.72 233.063 163.055 225.542 163.498C218.022 163.941 210.206 166.823 202.243 172.142C195.165 175.688 191.331 179.456 190.962 183.446C190.52 187.435 194.28 191.647 202.243 196.08C210.206 201.399 217.948 204.28 225.542 204.724C233.063 205.167 241.026 204.502 249.505 202.729C257.91 200.956 266.979 200.069 276.785 200.069C293.596 200.069 307.383 204.724 318 214.033C328.618 223.342 334 235.606 334 250.677C334 264.936 329.576 276.905 320.729 286.657C311.881 296.483 300.747 301.286 287.476 301.286C275.016 301.286 265.283 298.848 258.205 293.972C251.127 289.095 245.302 282.889 240.878 275.28C236.454 267.744 232.252 259.765 228.27 251.268C224.289 242.846 219.644 234.793 214.261 227.257C208.953 219.721 202.317 213.737 194.28 209.23C185.433 203.911 179.682 202.803 176.954 205.906C174.299 209.009 172.972 214.106 172.972 221.273C172.972 231.099 174.963 240.186 178.944 248.609C182.926 257.031 187.571 265.084 192.879 272.62C198.188 280.156 202.833 287.987 206.888 295.966C210.943 303.945 212.861 312.442 212.861 321.307C212.861 335.566 208.879 346.87 200.916 355.293C192.953 363.789 181.377 367.926 166.336 367.926V368Z" fill="#F490B9" fill-opacity="0.21"/>
</svg>
